<svg width="20" height="20" viewBox="0 0 20 20" fill="none" xmlns="http://www.w3.org/2000/svg">
<path d="M5.33337 8V12.6667" stroke="#171719" stroke-width="1.2" stroke-linecap="round" stroke-linejoin="round"/>
<path d="M5.50004 7.66671C6.69666 7.66671 7.66671 6.69666 7.66671 5.50004C7.66671 4.30342 6.69666 3.33337 5.50004 3.33337C4.30342 3.33337 3.33337 4.30342 3.33337 5.50004C3.33337 6.69666 4.30342 7.66671 5.50004 7.66671Z" stroke="#171719" stroke-width="1.2" stroke-linecap="round" stroke-linejoin="round"/>
<path d="M5.33337 16.6666C6.43794 16.6666 7.33337 15.7712 7.33337 14.6666C7.33337 13.5621 6.43794 12.6666 5.33337 12.6666C4.2288 12.6666 3.33337 13.5621 3.33337 14.6666C3.33337 15.7712 4.2288 16.6666 5.33337 16.6666Z" stroke="#171719" stroke-width="1.2" stroke-linecap="round" stroke-linejoin="round"/>
<path d="M14.6666 16.6666C15.7712 16.6666 16.6666 15.7712 16.6666 14.6666C16.6666 13.5621 15.7712 12.6666 14.6666 12.6666C13.5621 12.6666 12.6666 13.5621 12.6666 14.6666C12.6666 15.7712 13.5621 16.6666 14.6666 16.6666Z" stroke="#171719" stroke-width="1.2" stroke-linecap="round" stroke-linejoin="round"/>
<path d="M5.42004 8C5.72004 9.16667 6.78671 10.0333 8.04671 10.0267L10.3334 10.02C12.08 10.0133 13.5667 11.1333 14.1134 12.6933" stroke="#171719" stroke-width="1.2" stroke-linecap="round" stroke-linejoin="round"/>
</svg>
