<svg width="20" height="20" viewBox="0 0 20 20" fill="none" xmlns="http://www.w3.org/2000/svg">
<g id="Demo">
<path id="Vector" d="M5.20798 14.1666H5.16409C4.23215 14.1666 3.766 14.1666 3.40983 13.9851C3.09623 13.8254 2.84144 13.5697 2.68166 13.2561C2.5 12.8996 2.5 12.4335 2.5 11.5001V6.83346C2.5 5.90003 2.5 5.43298 2.68166 5.07646C2.84144 4.76285 3.09623 4.50807 3.40983 4.34828C3.76635 4.16663 4.23341 4.16663 5.16683 4.16663H14.8335C15.7669 4.16663 16.233 4.16663 16.5895 4.34828C16.9031 4.50807 17.1587 4.76285 17.3185 5.07646C17.5 5.43263 17.5 5.89912 17.5 6.83072V11.5025C17.5 12.4341 17.5 12.8999 17.3185 13.2561C17.1587 13.5697 16.9034 13.8254 16.5898 13.9851C16.2336 14.1666 15.7675 14.1666 14.8359 14.1666H14.7941M13.3333 16.6666H6.66667L10 12.5L13.3333 16.6666Z" stroke="#171719" stroke-width="1.5" stroke-linecap="round" stroke-linejoin="round"/>
</g>
</svg>
